<?xml version="1.0" encoding="UTF-8" standalone="no"?>
<!DOCTYPE svg PUBLIC "-//W3C//DTD SVG 1.1//EN" "http://www.w3.org/Graphics/SVG/1.1/DTD/svg11.dtd">
<svg width="100%" height="100%" viewBox="0 0 480 320" version="1.1" xmlns="http://www.w3.org/2000/svg" xmlns:xlink="http://www.w3.org/1999/xlink" xml:space="preserve" xmlns:serif="http://www.serif.com/" style="fill-rule:evenodd;clip-rule:evenodd;stroke-linecap:round;stroke-linejoin:round;stroke-miterlimit:1.5;">
    <g transform="matrix(2.31737,0,0,1,0,2.84217e-14)">
        <rect x="0" y="0" width="207.132" height="320" style="fill:rgb(0,3,13);"/>
    </g>
    <path d="M295.663,0L81.709,0L50.024,31.983L-11.509,32.072L-24.44,131.349L31.203,186.168L186.532,186.328L234.681,234.182L386.412,234.182L432.986,185.107L493.826,185.895L485.2,76.781L448.248,77.201L397.059,26.702L321.918,26.37L295.663,0Z" style="fill:rgb(12,43,110);fill-opacity:0.19;"/>
    <g transform="matrix(1,0,0,1,17.9519,37.7452)">
        <path d="M462.048,-37.745L277.974,-37.745L303.438,-11.26L378.75,-11.159L429.834,39.266L462.048,39.266L462.048,-37.745Z" style="fill:rgb(0,54,166);fill-opacity:0.11;"/>
    </g>
    <path d="M82.287,0L0,0L0,31.709L50.044,31.709L82.287,0Z" style="fill:rgb(0,54,166);fill-opacity:0.11;"/>
    <g transform="matrix(1.00287,0,0,1,-1.37544,0)">
        <path d="M480,184.828L434.94,184.828L386.379,234.182L18.301,234.182L1.372,253.297L1.372,320L480,320L480,184.828Z" style="fill:rgb(0,5,19);fill-opacity:0.05;"/>
    </g>
    <g transform="matrix(1,0,0,1,-20,0)">
        <path d="M0,275.547L37.265,234.182L405.224,234.182L454.578,184.828L535.456,184.828" style="fill:none;stroke:rgb(0,228,220);stroke-width:2.08px;"/>
    </g>
    <path d="M-20,32.115L50.185,32.115L102.123,-19.823L275.508,-19.823L321.632,26.301L396.955,26.301L447.666,77.011L523.053,77.011" style="fill:none;stroke:rgb(0,228,220);stroke-width:2.08px;"/>
    <path d="M-8.73,146.327L31.063,186.12L186.619,186.12L234.681,234.182" style="fill:none;stroke:rgb(0,228,220);stroke-width:2.08px;"/>
    <g transform="matrix(0.8,0,0,0.8,24,32)">
        <path d="M91.615,160C64.277,148.8 45,121.917 45,90.566C45,49.172 78.606,15.566 120,15.566C161.394,15.566 195,49.172 195,90.566C195,121.917 175.723,148.8 148.385,160C175.723,171.2 195,198.083 195,229.434C195,270.828 161.394,304.434 120,304.434C78.606,304.434 45,270.828 45,229.434C45,198.083 64.277,171.2 91.615,160Z" style="fill:rgb(0,4,23);stroke:rgb(0,228,220);stroke-width:2.6px;"/>
    </g>
    <g transform="matrix(1.09271,0,0,1.02614,-28.5371,6.17068)">
        <path d="M383.028,79.258C383.028,71.19 376.877,64.64 369.301,64.64L341.846,64.64C334.27,64.64 328.119,71.19 328.119,79.258L328.119,220.565C328.119,228.632 334.27,235.182 341.846,235.182L369.301,235.182C376.877,235.182 383.028,228.632 383.028,220.565L383.028,79.258Z" style="fill:rgb(0,4,19);stroke:rgb(0,228,220);stroke-width:1.97px;"/>
    </g>
</svg>
